<svg xmlns="http://www.w3.org/2000/svg" viewBox="0 0 100 100" enable-background="new 0 0 100 100"><circle fill="#4d6323" cx="50" cy="50" r="50"/><path opacity=".5" fill="#2f3d1c" d="m71 38.36l-3.228.11.728-2.525-5.631-5.694-8.68 8.681-25.12.854 3.258-7.257-2.708-5.166-8.842 8.842-4.395-3.064-16.373 16.373c-.126 13.06 4.821 26.15 14.847 36.06 10.286 10.16 23.864 14.938 37.25 14.374l31.497-31.497-12.607-30.09"/><path fill="#c18448" d="m16.389 33.14h67.22v35.31h-67.22z"/><g fill="#fff"><circle cx="33.375" cy="50.793" r="12.434"/><circle cx="66.63" cy="50.793" r="12.434"/></g><g fill="#ea6060"><path d="m29.625 27.361h7.5v5.777h-7.5z"/><path d="m62.874 30.25h7.5v2.889h-7.5z"/></g><path fill="#83869b" d="m66.31 53.31c-.407-.407-.407-1.066 0-1.474.407-.407 1.066-.407 1.474 0l4.889 4.944c.408.407.408 1.066 0 1.474-.406.407-1.066.407-1.473 0l-4.89-4.944"/><g fill="#9dbeed"><path d="m66 39.611h1v2h-1z"/><path d="m66 59.777h1v2h-1z"/><path d="m75.59 50.19h2v1h-2z"/><path d="m55.42 50.19h2v1h-2z"/><path d="m32.874 39.611h1v2h-1z"/><path d="m32.874 59.777h1v2h-1z"/><path d="m42.46 50.19h2v1h-2z"/><path d="m22.291 50.19h2v1h-2z"/></g><path fill="#83869b" d="m34.417 50.49c0 .576-.467 1.042-1.042 1.042-.576 0-1.042-.466-1.042-1.042v-9.416c0-.576.466-1.042 1.042-1.042.575 0 1.042.466 1.042 1.042v9.416"/></svg>